<?xml version="1.0" encoding="UTF-8" standalone="no"?>
<svg width="235px" height="189px" viewBox="0 0 235 189" version="1.1" xmlns="http://www.w3.org/2000/svg" xmlns:xlink="http://www.w3.org/1999/xlink" xmlns:sketch="http://www.bohemiancoding.com/sketch/ns">
    <title>logo</title>
    <description>Created with Sketch (http://www.bohemiancoding.com/sketch)</description>
    <defs>
        <path d="M103,84 C103,72.9543045 94.2695532,64 83.5,64 C72.7304468,64 64,72.9543045 64,84 C64,95.0456955 72.7304468,104 83.5,104 C94.2695532,104 103,95.0456955 103,84 Z M64.8199896,111.38025 L61.8705451,114.377266 C60.6033832,115.664866 58.5255166,115.673934 57.2494312,114.377266 L52.1207855,109.165901 C50.8536236,107.878301 50.8447001,105.76692 52.1207855,104.470253 L55.0702236,101.473243 C52.8618561,98.0328878 51.2524738,94.1593015 50.3924614,90.0053166 L46.6794718,90.0053166 L46.6794718,92.6909612 C46.6794718,96.3576188 44.1575322,97.850505 41.0211314,96.0104967 L23.3480329,85.6423548 C20.2230178,83.809026 20.2116321,80.8432923 23.3480329,79.003284 L41.0211314,68.6351421 C44.1461465,66.8018133 46.6794718,68.2746609 46.6794718,71.9546775 L46.6794718,75.9946834 L50.3924624,75.9946834 C51.252488,71.840715 52.8618603,67.9671536 55.07023,64.5267636 L52.1207855,61.5297474 C50.8536236,60.2421475 50.8447001,58.1307668 52.1207855,56.8340995 L57.2494312,51.6227336 C58.5165931,50.3351337 60.5944597,50.3260662 61.8705451,51.6227336 L64.8199832,54.6197433 C68.2057295,52.3757571 72.0178303,50.7404169 76.1058789,49.8665333 L76.1058789,46.0936569 L72.1300001,46.0936569 C68.5215435,46.0936569 67.0523539,43.5310407 68.8631557,40.3440529 L79.0667239,22.3859044 C80.8709522,19.2104858 83.7896108,19.1989165 85.6004127,22.3859044 L95.8039808,40.3440529 C97.6082092,43.5194715 96.1587401,46.0936569 92.5371365,46.0936569 L89.8941211,46.0936569 L89.8941211,49.8665347 C93.9821831,50.7404247 97.7942912,52.3757714 101.180017,54.6197428 L104.129455,51.6227336 C105.396617,50.3351337 107.474483,50.3260662 108.750569,51.6227336 L113.879215,56.8340995 C115.146376,58.1216994 115.1553,60.23308 113.879215,61.5297474 L110.92977,64.5267635 C113.138137,67.9671458 114.747511,71.8407108 115.607538,75.9946834 L119.320528,75.9946834 L119.320528,71.9546775 C119.320528,68.28802 121.842468,66.7951338 124.978869,68.6351421 L142.651967,79.003284 C145.776982,80.8366128 145.788368,83.8023465 142.651967,85.6423548 L124.978869,96.0104967 C121.853853,97.8438254 119.320528,96.3709779 119.320528,92.6909612 L119.320528,90.0053166 L115.607538,90.0053166 C114.747512,94.159285 113.13814,98.0328464 110.92977,101.473236 L113.879215,104.470253 C115.146376,105.757853 115.1553,107.869233 113.879215,109.165901 L108.750569,114.377266 C107.483407,115.664866 105.40554,115.673934 104.129455,114.377266 L102.33071,112.54951 C98.1831844,114.042231 94.0923664,115.415751 89.8941211,116.193993 L89.8941211,119.906343 L92.5371365,119.906343 C96.1455931,119.906343 97.6147827,122.468959 95.8039808,125.655947 L85.6004127,143.614096 C83.7961843,146.789514 80.8775257,146.801083 79.0667239,143.614096 L68.8631557,125.655947 C67.0589274,122.480529 68.5083965,119.906343 72.1300001,119.906343 L76.1058789,119.906343 L76.1058789,116.133466 C72.0178465,115.259569 68.2057702,113.624239 64.8199896,111.38025 Z M64.8199896,111.38025" id="path-1"></path>
        <path d="M103,84 C103,72.9543045 94.2695532,64 83.5,64 C72.7304468,64 64,72.9543045 64,84 C64,95.0456955 72.7304468,104 83.5,104 C94.2695532,104 103,95.0456955 103,84 Z M64.8199896,111.38025 L61.8705451,114.377266 C60.6033832,115.664866 58.5255166,115.673934 57.2494312,114.377266 L52.1207855,109.165901 C50.8536236,107.878301 50.8447001,105.76692 52.1207855,104.470253 L55.0702236,101.473243 C52.8618561,98.0328878 51.2524738,94.1593015 50.3924614,90.0053166 L46.6794718,90.0053166 L46.6794718,92.6909612 C46.6794718,96.3576188 44.1575322,97.850505 41.0211314,96.0104967 L23.3480329,85.6423548 C20.2230178,83.809026 20.2116321,80.8432923 23.3480329,79.003284 L41.0211314,68.6351421 C44.1461465,66.8018133 46.6794718,68.2746609 46.6794718,71.9546775 L46.6794718,75.9946834 L50.3924624,75.9946834 C51.252488,71.840715 52.8618603,67.9671536 55.07023,64.5267636 L52.1207855,61.5297474 C50.8536236,60.2421475 50.8447001,58.1307668 52.1207855,56.8340995 L57.2494312,51.6227336 C58.5165931,50.3351337 60.5944597,50.3260662 61.8705451,51.6227336 L64.8199832,54.6197433 C68.2057295,52.3757571 72.0178303,50.7404169 76.1058789,49.8665333 L76.1058789,46.0936569 L72.1300001,46.0936569 C68.5215435,46.0936569 67.0523539,43.5310407 68.8631557,40.3440529 L79.0667239,22.3859044 C80.8709522,19.2104858 83.7896108,19.1989165 85.6004127,22.3859044 L95.8039808,40.3440529 C97.6082092,43.5194715 96.1587401,46.0936569 92.5371365,46.0936569 L89.8941211,46.0936569 L89.8941211,49.8665347 C93.9821831,50.7404247 97.7942912,52.3757714 101.180017,54.6197428 L104.129455,51.6227336 C105.396617,50.3351337 107.474483,50.3260662 108.750569,51.6227336 L113.879215,56.8340995 C115.146376,58.1216994 115.1553,60.23308 113.879215,61.5297474 L110.92977,64.5267635 C113.138137,67.9671458 114.747511,71.8407108 115.607538,75.9946834 L119.320528,75.9946834 L119.320528,71.9546775 C119.320528,68.28802 121.842468,66.7951338 124.978869,68.6351421 L142.651967,79.003284 C145.776982,80.8366128 145.788368,83.8023465 142.651967,85.6423548 L124.978869,96.0104967 C121.853853,97.8438254 119.320528,96.3709779 119.320528,92.6909612 L119.320528,90.0053166 L115.607538,90.0053166 C114.747512,94.159285 113.13814,98.0328464 110.92977,101.473236 L113.879215,104.470253 C115.146376,105.757853 115.1553,107.869233 113.879215,109.165901 L108.750569,114.377266 C107.483407,115.664866 105.40554,115.673934 104.129455,114.377266 L102.33071,112.54951 C98.1831844,114.042231 94.0923664,115.415751 89.8941211,116.193993 L89.8941211,119.906343 L92.5371365,119.906343 C96.1455931,119.906343 97.6147827,122.468959 95.8039808,125.655947 L85.6004127,143.614096 C83.7961843,146.789514 80.8775257,146.801083 79.0667239,143.614096 L68.8631557,125.655947 C67.0589274,122.480529 68.5083965,119.906343 72.1300001,119.906343 L76.1058789,119.906343 L76.1058789,116.133466 C72.0178465,115.259569 68.2057702,113.624239 64.8199896,111.38025 Z M64.8199896,111.38025" id="path-2"></path>
        <path d="M103,84 C103,72.9543045 94.2695532,64 83.5,64 C72.7304468,64 64,72.9543045 64,84 C64,95.0456955 72.7304468,104 83.5,104 C94.2695532,104 103,95.0456955 103,84 Z M64.8199896,111.38025 L61.8705451,114.377266 C60.6033832,115.664866 58.5255166,115.673934 57.2494312,114.377266 L52.1207855,109.165901 C50.8536236,107.878301 50.8447001,105.76692 52.1207855,104.470253 L55.0702236,101.473243 C52.8618561,98.0328878 51.2524738,94.1593015 50.3924614,90.0053166 L46.6794718,90.0053166 L46.6794718,92.6909612 C46.6794718,96.3576188 44.1575322,97.850505 41.0211314,96.0104967 L23.3480329,85.6423548 C20.2230178,83.809026 20.2116321,80.8432923 23.3480329,79.003284 L41.0211314,68.6351421 C44.1461465,66.8018133 46.6794718,68.2746609 46.6794718,71.9546775 L46.6794718,75.9946834 L50.3924624,75.9946834 C51.252488,71.840715 52.8618603,67.9671536 55.07023,64.5267636 L52.1207855,61.5297474 C50.8536236,60.2421475 50.8447001,58.1307668 52.1207855,56.8340995 L57.2494312,51.6227336 C58.5165931,50.3351337 60.5944597,50.3260662 61.8705451,51.6227336 L64.8199832,54.6197433 C68.2057295,52.3757571 72.0178303,50.7404169 76.1058789,49.8665333 L76.1058789,46.0936569 L72.1300001,46.0936569 C68.5215435,46.0936569 67.0523539,43.5310407 68.8631557,40.3440529 L79.0667239,22.3859044 C80.8709522,19.2104858 83.7896108,19.1989165 85.6004127,22.3859044 L95.8039808,40.3440529 C97.6082092,43.5194715 96.1587401,46.0936569 92.5371365,46.0936569 L89.8941211,46.0936569 L89.8941211,49.8665347 C93.9821831,50.7404247 97.7942912,52.3757714 101.180017,54.6197428 L104.129455,51.6227336 C105.396617,50.3351337 107.474483,50.3260662 108.750569,51.6227336 L113.879215,56.8340995 C115.146376,58.1216994 115.1553,60.23308 113.879215,61.5297474 L110.92977,64.5267635 C113.138137,67.9671458 114.747511,71.8407108 115.607538,75.9946834 L119.320528,75.9946834 L119.320528,71.9546775 C119.320528,68.28802 121.842468,66.7951338 124.978869,68.6351421 L142.651967,79.003284 C145.776982,80.8366128 145.788368,83.8023465 142.651967,85.6423548 L124.978869,96.0104967 C121.853853,97.8438254 119.320528,96.3709779 119.320528,92.6909612 L119.320528,90.0053166 L115.607538,90.0053166 C114.747512,94.159285 113.13814,98.0328464 110.92977,101.473236 L113.879215,104.470253 C115.146376,105.757853 115.1553,107.869233 113.879215,109.165901 L108.750569,114.377266 C107.483407,115.664866 105.40554,115.673934 104.129455,114.377266 L102.33071,112.54951 C98.1831844,114.042231 94.0923664,115.415751 89.8941211,116.193993 L89.8941211,119.906343 L92.5371365,119.906343 C96.1455931,119.906343 97.6147827,122.468959 95.8039808,125.655947 L85.6004127,143.614096 C83.7961843,146.789514 80.8775257,146.801083 79.0667239,143.614096 L68.8631557,125.655947 C67.0589274,122.480529 68.5083965,119.906343 72.1300001,119.906343 L76.1058789,119.906343 L76.1058789,116.133466 C72.0178465,115.259569 68.2057702,113.624239 64.8199896,111.38025 Z M64.8199896,111.38025" id="path-3"></path>
        <path d="M103,84 C103,72.9543045 94.2695532,64 83.5,64 C72.7304468,64 64,72.9543045 64,84 C64,95.0456955 72.7304468,104 83.5,104 C94.2695532,104 103,95.0456955 103,84 Z M64.8199896,111.38025 L61.8705451,114.377266 C60.6033832,115.664866 58.5255166,115.673934 57.2494312,114.377266 L52.1207855,109.165901 C50.8536236,107.878301 50.8447001,105.76692 52.1207855,104.470253 L55.0702236,101.473243 C52.8618561,98.0328878 51.2524738,94.1593015 50.3924614,90.0053166 L46.6794718,90.0053166 L46.6794718,92.6909612 C46.6794718,96.3576188 44.1575322,97.850505 41.0211314,96.0104967 L23.3480329,85.6423548 C20.2230178,83.809026 20.2116321,80.8432923 23.3480329,79.003284 L41.0211314,68.6351421 C44.1461465,66.8018133 46.6794718,68.2746609 46.6794718,71.9546775 L46.6794718,75.9946834 L50.3924624,75.9946834 C51.252488,71.840715 52.8618603,67.9671536 55.07023,64.5267636 L52.1207855,61.5297474 C50.8536236,60.2421475 50.8447001,58.1307668 52.1207855,56.8340995 L57.2494312,51.6227336 C58.5165931,50.3351337 60.5944597,50.3260662 61.8705451,51.6227336 L64.8199832,54.6197433 C68.2057295,52.3757571 72.0178303,50.7404169 76.1058789,49.8665333 L76.1058789,46.0936569 L72.1300001,46.0936569 C68.5215435,46.0936569 67.0523539,43.5310407 68.8631557,40.3440529 L79.0667239,22.3859044 C80.8709522,19.2104858 83.7896108,19.1989165 85.6004127,22.3859044 L95.8039808,40.3440529 C97.6082092,43.5194715 96.1587401,46.0936569 92.5371365,46.0936569 L89.8941211,46.0936569 L89.8941211,49.8665347 C93.9821831,50.7404247 97.7942912,52.3757714 101.180017,54.6197428 L104.129455,51.6227336 C105.396617,50.3351337 107.474483,50.3260662 108.750569,51.6227336 L113.879215,56.8340995 C115.146376,58.1216994 115.1553,60.23308 113.879215,61.5297474 L110.92977,64.5267635 C113.138137,67.9671458 114.747511,71.8407108 115.607538,75.9946834 L119.320528,75.9946834 L119.320528,71.9546775 C119.320528,68.28802 121.842468,66.7951338 124.978869,68.6351421 L142.651967,79.003284 C145.776982,80.8366128 145.788368,83.8023465 142.651967,85.6423548 L124.978869,96.0104967 C121.853853,97.8438254 119.320528,96.3709779 119.320528,92.6909612 L119.320528,90.0053166 L115.607538,90.0053166 C114.747512,94.159285 113.13814,98.0328464 110.92977,101.473236 L113.879215,104.470253 C115.146376,105.757853 115.1553,107.869233 113.879215,109.165901 L108.750569,114.377266 C107.483407,115.664866 105.40554,115.673934 104.129455,114.377266 L102.33071,112.54951 C98.1831844,114.042231 94.0923664,115.415751 89.8941211,116.193993 L89.8941211,119.906343 L92.5371365,119.906343 C96.1455931,119.906343 97.6147827,122.468959 95.8039808,125.655947 L85.6004127,143.614096 C83.7961843,146.789514 80.8775257,146.801083 79.0667239,143.614096 L68.8631557,125.655947 C67.0589274,122.480529 68.5083965,119.906343 72.1300001,119.906343 L76.1058789,119.906343 L76.1058789,116.133466 C72.0178465,115.259569 68.2057702,113.624239 64.8199896,111.38025 Z M64.8199896,111.38025" id="path-4"></path>
        <path d="M103,84 C103,72.9543045 94.2695532,64 83.5,64 C72.7304468,64 64,72.9543045 64,84 C64,95.0456955 72.7304468,104 83.5,104 C94.2695532,104 103,95.0456955 103,84 Z M64.8199896,111.38025 L61.8705451,114.377266 C60.6033832,115.664866 58.5255166,115.673934 57.2494312,114.377266 L52.1207855,109.165901 C50.8536236,107.878301 50.8447001,105.76692 52.1207855,104.470253 L55.0702236,101.473243 C52.8618561,98.0328878 51.2524738,94.1593015 50.3924614,90.0053166 L46.6794718,90.0053166 L46.6794718,92.6909612 C46.6794718,96.3576188 44.1575322,97.850505 41.0211314,96.0104967 L23.3480329,85.6423548 C20.2230178,83.809026 20.2116321,80.8432923 23.3480329,79.003284 L41.0211314,68.6351421 C44.1461465,66.8018133 46.6794718,68.2746609 46.6794718,71.9546775 L46.6794718,75.9946834 L50.3924624,75.9946834 C51.252488,71.840715 52.8618603,67.9671536 55.07023,64.5267636 L52.1207855,61.5297474 C50.8536236,60.2421475 50.8447001,58.1307668 52.1207855,56.8340995 L57.2494312,51.6227336 C58.5165931,50.3351337 60.5944597,50.3260662 61.8705451,51.6227336 L64.8199832,54.6197433 C68.2057295,52.3757571 72.0178303,50.7404169 76.1058789,49.8665333 L76.1058789,46.0936569 L72.1300001,46.0936569 C68.5215435,46.0936569 67.0523539,43.5310407 68.8631557,40.3440529 L79.0667239,22.3859044 C80.8709522,19.2104858 83.7896108,19.1989165 85.6004127,22.3859044 L95.8039808,40.3440529 C97.6082092,43.5194715 96.1587401,46.0936569 92.5371365,46.0936569 L89.8941211,46.0936569 L89.8941211,49.8665347 C93.9821831,50.7404247 97.7942912,52.3757714 101.180017,54.6197428 L104.129455,51.6227336 C105.396617,50.3351337 107.474483,50.3260662 108.750569,51.6227336 L113.879215,56.8340995 C115.146376,58.1216994 115.1553,60.23308 113.879215,61.5297474 L110.92977,64.5267635 C113.138137,67.9671458 114.747511,71.8407108 115.607538,75.9946834 L119.320528,75.9946834 L119.320528,71.9546775 C119.320528,68.28802 121.842468,66.7951338 124.978869,68.6351421 L142.651967,79.003284 C145.776982,80.8366128 145.788368,83.8023465 142.651967,85.6423548 L124.978869,96.0104967 C121.853853,97.8438254 119.320528,96.3709779 119.320528,92.6909612 L119.320528,90.0053166 L115.607538,90.0053166 C114.747512,94.159285 113.13814,98.0328464 110.92977,101.473236 L113.879215,104.470253 C115.146376,105.757853 115.1553,107.869233 113.879215,109.165901 L108.750569,114.377266 C107.483407,115.664866 105.40554,115.673934 104.129455,114.377266 L102.33071,112.54951 C98.1831844,114.042231 94.0923664,115.415751 89.8941211,116.193993 L89.8941211,119.906343 L92.5371365,119.906343 C96.1455931,119.906343 97.6147827,122.468959 95.8039808,125.655947 L85.6004127,143.614096 C83.7961843,146.789514 80.8775257,146.801083 79.0667239,143.614096 L68.8631557,125.655947 C67.0589274,122.480529 68.5083965,119.906343 72.1300001,119.906343 L76.1058789,119.906343 L76.1058789,116.133466 C72.0178465,115.259569 68.2057702,113.624239 64.8199896,111.38025 Z M64.8199896,111.38025" id="path-5"></path>
        <path d="M103,84 C103,72.9543045 94.2695532,64 83.5,64 C72.7304468,64 64,72.9543045 64,84 C64,95.0456955 72.7304468,104 83.5,104 C94.2695532,104 103,95.0456955 103,84 Z M64.8199896,111.38025 L61.8705451,114.377266 C60.6033832,115.664866 58.5255166,115.673934 57.2494312,114.377266 L52.1207855,109.165901 C50.8536236,107.878301 50.8447001,105.76692 52.1207855,104.470253 L55.0702236,101.473243 C52.8618561,98.0328878 51.2524738,94.1593015 50.3924614,90.0053166 L46.6794718,90.0053166 L46.6794718,92.6909612 C46.6794718,96.3576188 44.1575322,97.850505 41.0211314,96.0104967 L23.3480329,85.6423548 C20.2230178,83.809026 20.2116321,80.8432923 23.3480329,79.003284 L41.0211314,68.6351421 C44.1461465,66.8018133 46.6794718,68.2746609 46.6794718,71.9546775 L46.6794718,75.9946834 L50.3924624,75.9946834 C51.252488,71.840715 52.8618603,67.9671536 55.07023,64.5267636 L52.1207855,61.5297474 C50.8536236,60.2421475 50.8447001,58.1307668 52.1207855,56.8340995 L57.2494312,51.6227336 C58.5165931,50.3351337 60.5944597,50.3260662 61.8705451,51.6227336 L64.8199832,54.6197433 C68.2057295,52.3757571 72.0178303,50.7404169 76.1058789,49.8665333 L76.1058789,46.0936569 L72.1300001,46.0936569 C68.5215435,46.0936569 67.0523539,43.5310407 68.8631557,40.3440529 L79.0667239,22.3859044 C80.8709522,19.2104858 83.7896108,19.1989165 85.6004127,22.3859044 L95.8039808,40.3440529 C97.6082092,43.5194715 96.1587401,46.0936569 92.5371365,46.0936569 L89.8941211,46.0936569 L89.8941211,49.8665347 C93.9821831,50.7404247 97.7942912,52.3757714 101.180017,54.6197428 L104.129455,51.6227336 C105.396617,50.3351337 107.474483,50.3260662 108.750569,51.6227336 L113.879215,56.8340995 C115.146376,58.1216994 115.1553,60.23308 113.879215,61.5297474 L110.92977,64.5267635 C113.138137,67.9671458 114.747511,71.8407108 115.607538,75.9946834 L119.320528,75.9946834 L119.320528,71.9546775 C119.320528,68.28802 121.842468,66.7951338 124.978869,68.6351421 L142.651967,79.003284 C145.776982,80.8366128 145.788368,83.8023465 142.651967,85.6423548 L124.978869,96.0104967 C121.853853,97.8438254 119.320528,96.3709779 119.320528,92.6909612 L119.320528,90.0053166 L115.607538,90.0053166 C114.747512,94.159285 113.13814,98.0328464 110.92977,101.473236 L113.879215,104.470253 C115.146376,105.757853 115.1553,107.869233 113.879215,109.165901 L108.750569,114.377266 C107.483407,115.664866 105.40554,115.673934 104.129455,114.377266 L102.33071,112.54951 C98.1831844,114.042231 94.0923664,115.415751 89.8941211,116.193993 L89.8941211,119.906343 L92.5371365,119.906343 C96.1455931,119.906343 97.6147827,122.468959 95.8039808,125.655947 L85.6004127,143.614096 C83.7961843,146.789514 80.8775257,146.801083 79.0667239,143.614096 L68.8631557,125.655947 C67.0589274,122.480529 68.5083965,119.906343 72.1300001,119.906343 L76.1058789,119.906343 L76.1058789,116.133466 C72.0178465,115.259569 68.2057702,113.624239 64.8199896,111.38025 Z M64.8199896,111.38025" id="path-6"></path>
    </defs>
    <g id="google" stroke="none" stroke-width="1" fill="none" fill-rule="evenodd" sketch:type="MSPage">
        <g id="Artboard-1" sketch:type="MSArtboardGroup" transform="translate(-268.000000, -159.000000)">
            <g id="Group" sketch:type="MSLayerGroup" transform="translate(268.000000, 139.000000)">
                <g id="Logo" transform="translate(33.000000, 0.000000)">
                    <g id="Group">
                        <g id="Path" opacity="0.15">
                            <use fill="#86959D" fill-rule="evenodd" sketch:type="MSShapeGroup" transform="translate(83.000000, 83.000000) rotate(-25.000000) translate(-83.000000, -83.000000) " xlink:href="#path-1"></use>
                            <use fill="none" xlink:href="#path-1"></use>
                            <use fill="none" xlink:href="#path-1"></use>
                        </g>
                        <g id="Path" opacity="0.2">
                            <use fill="#86959D" fill-rule="evenodd" sketch:type="MSShapeGroup" transform="translate(83.000000, 83.000000) rotate(-20.000000) translate(-83.000000, -83.000000) " xlink:href="#path-2"></use>
                            <use fill="none" xlink:href="#path-2"></use>
                            <use fill="none" xlink:href="#path-2"></use>
                        </g>
                        <g id="Path" opacity="0.25">
                            <use fill="#86959D" fill-rule="evenodd" sketch:type="MSShapeGroup" transform="translate(83.000000, 83.000000) rotate(-15.000000) translate(-83.000000, -83.000000) " xlink:href="#path-3"></use>
                            <use fill="none" xlink:href="#path-3"></use>
                            <use fill="none" xlink:href="#path-3"></use>
                        </g>
                        <g id="Path" opacity="0.3">
                            <use fill="#86959D" fill-rule="evenodd" sketch:type="MSShapeGroup" transform="translate(83.000000, 83.000000) rotate(-10.000000) translate(-83.000000, -83.000000) " xlink:href="#path-4"></use>
                            <use fill="none" xlink:href="#path-4"></use>
                            <use fill="none" xlink:href="#path-4"></use>
                        </g>
                        <g id="Path" opacity="0.35">
                            <use fill="#86959D" fill-rule="evenodd" sketch:type="MSShapeGroup" transform="translate(83.000000, 83.000000) rotate(-5.000000) translate(-83.000000, -83.000000) " xlink:href="#path-5"></use>
                            <use fill="none" xlink:href="#path-5"></use>
                            <use fill="none" xlink:href="#path-5"></use>
                        </g>
                    </g>
                    <g id="Path">
                        <use fill="none" sketch:type="MSShapeGroup" xlink:href="#path-6"></use>
                        <use fill="none" xlink:href="#path-6"></use>
                        <use fill="#3B4C56" fill-rule="evenodd" xlink:href="#path-6"></use>
                    </g>
                    <path d="M76,84 C76,79.5817218 79.3578642,76 83.5,76 C87.6421358,76 91,79.5817218 91,84 C91,88.4182782 87.6421358,92 83.5,92 C79.3578642,92 76,88.4182782 76,84 Z M76,84" id="Path" fill="#3B4C56" sketch:type="MSShapeGroup"></path>
                </g>
                <g transform="translate(0.000000, 150.000000)" id="Planstery" fill="#3B4C56" sketch:type="MSShapeGroup">
                    <path d="M1.87844959,48 L1.87844959,26.5743768 L18.9530232,26.5743768 C21.150534,26.5743768 23.1612262,26.299692 24.9851602,25.7503143 C26.8090941,25.2009366 28.3802908,24.3878698 29.6987973,23.3110896 C31.0173038,22.2343093 32.0501184,20.8938478 32.797272,19.2896649 C33.5444257,17.685482 33.9179969,15.850588 33.9179969,13.7849278 C33.9179969,9.52175688 32.6654346,6.31343923 30.1602722,4.15987864 C27.6551099,2.00631805 24.1391454,0.92955391 19.6122731,0.92955391 L0.559949704,0.92955391 L0.559949704,48 L1.87844959,48 Z M1.87844959,25.2558769 L1.87844959,2.2480538 L19.6122731,2.2480538 C24.0072947,2.2480538 27.2705493,3.23691883 29.4021348,5.21467855 C31.5337203,7.19243828 32.599497,10.0491595 32.599497,13.7849278 C32.599497,15.6308369 32.2698754,17.2569705 31.6106221,18.6633774 C30.9513689,20.0697844 30.0394156,21.2674098 28.8747349,22.2562896 C27.7100541,23.2451695 26.3366305,23.992312 24.7544227,24.4977395 C23.1722149,25.0031669 21.4581822,25.2558769 19.6122731,25.2558769 L1.87844959,25.2558769 Z M38.4668216,0.92955391 L38.4668216,48 L39.7853214,48 L39.7853214,0.92955391 L38.4668216,0.92955391 Z M46.9711458,24.5966269 L48.2896457,24.5966269 C48.5093968,21.4322114 49.6081357,18.9820236 51.5858955,17.2459901 C53.5636552,15.5099565 56.3324773,14.6419528 59.8924448,14.6419528 C62.1339058,14.6419528 63.9138628,14.9386123 65.2323693,15.5319402 C66.5508758,16.1252681 67.5507282,16.883398 68.2319566,17.8063525 C68.9131849,18.729307 69.3416931,19.7401469 69.517494,20.8389023 C69.6932948,21.9376577 69.781194,22.992447 69.781194,24.003302 C69.781194,25.2778583 69.528484,26.2557359 69.0230565,26.9369642 C68.517629,27.6181926 67.726537,28.1236125 66.6497567,28.4532391 C65.5729764,28.7828657 64.1995528,29.0026135 62.5294446,29.1124891 C60.8593363,29.2223646 58.8596315,29.3432259 56.5302701,29.4750765 C55.1238631,29.562977 53.7174773,29.7497626 52.3110704,30.035439 C50.9046635,30.3211154 49.6521011,30.8265353 48.5533457,31.5517139 C47.4545903,32.2768924 46.5646118,33.2767449 45.8833834,34.5513011 C45.2021551,35.8258574 44.861546,37.5179153 44.861546,39.6275257 C44.861546,42.6600906 45.8943606,44.9344802 47.9600208,46.4507626 C50.0256809,47.9670451 52.7725282,48.7251749 56.2006451,48.7251749 C57.9586537,48.7251749 59.5847873,48.4944398 61.0790947,48.0329625 C62.573402,47.5714852 63.9028761,46.945204 65.0675568,46.1541002 C66.2322376,45.3629963 67.1991278,44.4620303 67.9682566,43.4511754 C68.7373854,42.4403204 69.2977422,41.385531 69.649344,40.2867756 L69.781194,40.2867756 L69.781194,44.7037503 C69.781194,45.9783065 70.1437778,46.8463103 70.8689564,47.3077876 C71.5941349,47.7692648 72.4401639,48 73.4070687,48 L75.3848185,48 L75.3848185,46.6815001 C74.9453163,46.7254503 74.4728586,46.7584125 73.9674311,46.7803876 C73.4620036,46.8023627 72.9895459,46.7584132 72.5500437,46.6485376 C72.1105416,46.5386621 71.7589451,46.3299017 71.4952438,46.0222502 C71.2315425,45.7145987 71.0996938,45.2311535 71.0996938,44.5719003 L71.0996938,23.0144271 C71.0557436,21.168518 70.726122,19.6302835 70.1108189,18.3996775 C69.4955159,17.1690714 68.6824491,16.169219 67.6715941,15.4000902 C66.6607392,14.6309614 65.4850885,14.0925794 64.1446069,13.7849278 C62.8041253,13.4772763 61.3867521,13.3234529 59.8924448,13.3234529 C57.7828344,13.3234529 55.9479404,13.609125 54.3877077,14.1804778 C52.8274751,14.7518306 51.5089884,15.5429226 50.4322081,16.5537776 C49.3554278,17.5646326 48.5313736,18.762258 47.9600208,20.1466898 C47.388668,21.5311216 47.0590463,23.0144192 46.9711458,24.5966269 C46.9711458,24.5966269 47.0590463,23.0144192 46.9711458,24.5966269 Z M69.781194,28.0906517 L69.781194,34.3535261 C69.781194,36.0236343 69.4845344,37.6497679 68.8912065,39.2319757 C68.2978786,40.8141835 67.4188875,42.2095819 66.2542067,43.4182129 C65.089526,44.6268438 63.650178,45.6047215 61.9361196,46.3518751 C60.2220612,47.0990288 58.2663059,47.4726 56.0687951,47.4726 C54.222886,47.4726 52.6736641,47.2418649 51.421083,46.7803876 C50.1685018,46.3189103 49.1466746,45.7255913 48.3555707,45.0004127 C47.5644668,44.2752342 47.00411,43.4401926 46.6744834,42.495263 C46.3448568,41.5503333 46.1800459,40.5944304 46.1800459,39.6275257 C46.1800459,37.8255668 46.465718,36.3642441 47.0370708,35.2435136 C47.6084237,34.122783 48.3775409,33.2437919 49.3444457,32.6065138 C50.3113504,31.9692356 51.4210767,31.5297401 52.6736579,31.2880139 C53.926239,31.0462877 55.2117636,30.8814769 56.5302701,30.7935764 C57.8487765,30.705676 59.2002254,30.6397517 60.5846572,30.5958014 C61.969089,30.5518512 63.2546136,30.4419773 64.4412694,30.2661765 C65.6279252,30.0903756 66.6827146,29.8376657 67.6056691,29.508039 C68.5286237,29.1784124 69.2098418,28.7059547 69.649344,28.0906517 C69.649344,28.0906517 69.2098418,28.7059547 69.649344,28.0906517 L69.781194,28.0906517 Z M78.7469932,14.1145528 L78.7469932,48 L80.0654931,48 L80.0654931,28.8158266 C80.0654931,26.9259673 80.3291904,25.1240355 80.856593,23.409977 C81.3839956,21.6959186 82.1641003,20.1906463 83.1969303,18.8941149 C84.2297604,17.5975835 85.515285,16.564769 87.0535425,15.7956402 C88.5918001,15.0265114 90.3717571,14.6419528 92.3934671,14.6419528 C93.8438242,14.6419528 95.2172479,14.8507132 96.5137792,15.2682402 C97.8103106,15.6857673 98.9529991,16.3450106 99.9418789,17.2459901 C100.930759,18.1469695 101.710863,19.289658 102.282216,20.6740898 C102.853569,22.0585216 103.139241,23.7395921 103.139241,25.7173519 L103.139241,48 L104.457741,48 L104.457741,25.5195769 C104.457741,23.5418171 104.161082,21.7948223 103.567754,20.2785398 C102.974426,18.7622573 102.139384,17.4877202 101.062604,16.4548901 C99.9858236,15.42206 98.7112864,14.6419554 97.2389542,14.1145528 C95.7666219,13.5871502 94.1514757,13.3234529 92.3934671,13.3234529 C90.7233589,13.3234529 89.2070992,13.5541881 87.8446425,14.0156653 C86.4821858,14.4771426 85.2845603,15.1253986 84.2517303,15.9604527 C83.2189002,16.7955068 82.3618838,17.762397 81.6806555,18.8611524 C80.9994271,19.9599078 80.5049946,21.1685206 80.1973431,22.4870271 L80.0654931,22.4870271 L80.0654931,14.1145528 L78.7469932,14.1145528 Z M133.794364,24.135152 L135.112864,24.135152 C135.112864,20.3554334 134.014125,17.6085861 131.816614,15.8945277 C129.619103,14.1804692 126.630533,13.3234529 122.850815,13.3234529 C120.741204,13.3234529 118.961247,13.5871502 117.51089,14.1145528 C116.060533,14.6419554 114.873895,15.3231735 113.95094,16.1582276 C113.027986,16.9932818 112.368742,17.9162224 111.97319,18.9270774 C111.577639,19.9379324 111.379865,20.9048226 111.379865,21.8277772 C111.379865,23.6736863 111.709487,25.1459964 112.36874,26.2447518 C113.027994,27.3435072 114.060808,28.2005236 115.467215,28.8158266 C116.43412,29.2553288 117.532859,29.6508748 118.763465,30.0024765 C119.994071,30.3540782 121.422432,30.7276495 123.04859,31.1232014 C124.498947,31.4748031 125.927307,31.8263996 127.333714,32.1780013 C128.740121,32.529603 129.981696,33.0020608 131.058476,33.5953887 C132.135257,34.1887166 133.014248,34.9468465 133.695476,35.869801 C134.376704,36.7927555 134.717314,38.0013684 134.717314,39.4956757 C134.717314,40.9460328 134.376704,42.1766204 133.695476,43.1874754 C133.014248,44.1983304 132.146244,45.0223846 131.091439,45.6596627 C130.036634,46.2969408 128.860983,46.7584112 127.564452,47.0440876 C126.26792,47.329764 125.004371,47.4726 123.773764,47.4726 C119.774295,47.4726 116.708813,46.5826215 114.577228,44.8026378 C112.445642,43.022654 111.379865,40.2208698 111.379865,36.397201 L110.061366,36.397201 C110.061366,40.6603719 111.215041,43.7807905 113.522428,45.7585502 C115.829814,47.7363099 119.246892,48.7251749 123.773764,48.7251749 C125.224122,48.7251749 126.685444,48.5603641 128.157777,48.2307375 C129.630109,47.9011109 130.948596,47.3627288 132.113276,46.6155751 C133.277957,45.8684214 134.222872,44.9015312 134.948051,43.7148754 C135.67323,42.5282195 136.035813,41.0778841 136.035813,39.3638257 C136.035813,37.7376677 135.717179,36.419181 135.079901,35.408326 C134.442623,34.3974711 133.607581,33.5624295 132.574751,32.9031763 C131.541921,32.243923 130.377258,31.7275157 129.080727,31.3539389 C127.784195,30.980362 126.476696,30.6177782 125.158189,30.2661765 C123.31228,29.7827241 121.697134,29.3652033 120.312702,29.0136016 C118.92827,28.6619998 117.642746,28.2444791 116.45609,27.7610267 C115.313384,27.2775743 114.401431,26.5853688 113.720203,25.6843894 C113.038974,24.7834099 112.698365,23.4978854 112.698365,21.8277772 C112.698365,21.5201257 112.786265,20.9707562 112.962065,20.1796523 C113.137866,19.3885484 113.555387,18.586469 114.21464,17.77339 C114.873894,16.960311 115.884733,16.2351433 117.24719,15.5978652 C118.609647,14.9605871 120.477503,14.6419528 122.850815,14.6419528 C124.476973,14.6419528 125.96027,14.817751 127.300752,15.1693527 C128.641233,15.5209545 129.794909,16.0813113 130.761814,16.8504401 C131.728719,17.6195689 132.475861,18.5974465 133.003264,19.7841023 C133.530666,20.9707582 133.794364,22.4210936 133.794364,24.135152 C133.794364,24.135152 133.794364,22.4210936 133.794364,24.135152 Z M145.858638,15.4330527 L153.505937,15.4330527 L153.505937,14.1145528 L145.858638,14.1145528 L145.858638,3.4347037 L144.540138,3.4347037 L144.540138,14.1145528 L138.343188,14.1145528 L138.343188,15.4330527 L144.540138,15.4330527 L144.540138,41.6712005 C144.540138,44.0884624 145.07852,45.7475582 146.1553,46.6485376 C147.23208,47.549517 148.53958,48 150.077837,48 C151.088692,48 151.780898,47.9780252 152.154475,47.934075 C152.528051,47.8901248 152.91261,47.8461752 153.308162,47.802225 L153.308162,46.4837251 C153.088411,46.5716256 152.71484,46.6265625 152.187437,46.6485376 C151.660035,46.6705127 151.066715,46.6815001 150.407462,46.6815001 C149.88006,46.6815001 149.352665,46.6485379 148.825262,46.5826126 C148.29786,46.5166873 147.814415,46.3079269 147.374913,45.9563252 C146.93541,45.6047234 146.572827,45.0773288 146.28715,44.3741253 C146.001474,43.6709218 145.858638,42.6820568 145.858638,41.4075005 C145.858638,41.4075005 145.858638,42.6820568 145.858638,41.4075005 L145.858638,15.4330527 Z M157.461437,31.3209764 L185.809184,31.3209764 C185.897085,28.9916149 185.66635,26.7501875 185.116972,24.5966269 C184.567594,22.4430664 183.688603,20.5312606 182.479972,18.8611524 C181.271341,17.1910442 179.711132,15.8505827 177.799297,14.8397278 C175.887463,13.8288728 173.613074,13.3234529 170.976061,13.3234529 C169.086201,13.3234529 167.24032,13.7189989 165.438361,14.5101028 C163.636402,15.3012067 162.054218,16.4548825 160.691761,17.971165 C159.329305,19.4874475 158.230566,21.3443162 157.395512,23.541827 C156.560458,25.7393378 156.142937,28.2444626 156.142937,31.0572764 C156.142937,33.5624387 156.428609,35.9027526 156.999962,38.0782883 C157.571315,40.253824 158.450306,42.143655 159.636961,43.7478379 C160.823617,45.3520207 162.350864,46.5935957 164.218749,47.4726 C166.086633,48.3516044 168.339048,48.7691252 170.976061,48.7251749 C174.84368,48.7251749 178.095947,47.6374234 180.73296,45.4618877 C183.369973,43.286352 184.930182,40.2208704 185.413634,36.265351 L184.095134,36.265351 C183.523782,40.0011193 182.062459,42.8029036 179.711122,44.6707878 C177.359786,46.538672 174.404178,47.4726 170.844211,47.4726 C168.426949,47.4726 166.383294,47.0550793 164.713186,46.2200251 C163.043078,45.384971 161.680642,44.2422826 160.625836,42.7919254 C159.571031,41.3415683 158.790927,39.638523 158.285499,37.6827384 C157.780072,35.7269537 157.505387,33.6063876 157.461437,31.3209764 C157.461437,31.3209764 157.505387,33.6063876 157.461437,31.3209764 Z M184.490684,30.0024765 L157.461437,30.0024765 C157.593287,27.6291648 158.032783,25.4976113 158.779937,23.607752 C159.52709,21.7178927 160.504968,20.1027465 161.713599,18.7622649 C162.92223,17.4217833 164.328616,16.3999561 165.932798,15.6967527 C167.536981,14.9935492 169.262001,14.6419528 171.107911,14.6419528 C173.305421,14.6419528 175.239202,15.0484862 176.90931,15.8615652 C178.579418,16.6746442 179.974817,17.7843705 181.095547,19.1907774 C182.216278,20.5971843 183.062307,22.2343053 183.633659,24.1021895 C184.205012,25.9700737 184.490684,27.9368163 184.490684,30.0024765 C184.490684,30.0024765 184.490684,27.9368163 184.490684,30.0024765 Z M192.401684,48 L192.401684,28.8158266 C192.401684,26.9699175 192.665381,25.1679857 193.192784,23.409977 C193.720186,21.6519684 194.533253,20.1027465 195.632008,18.7622649 C196.730764,17.4217833 198.126162,16.366994 199.818246,15.5978652 C201.510329,14.8287364 203.521021,14.5101021 205.850383,14.6419528 L205.850383,13.3234529 C203.828673,13.2795027 202.059703,13.4992504 200.543421,13.9827028 C199.027138,14.4661552 197.719639,15.1253986 196.620883,15.9604527 C195.522128,16.7955068 194.643137,17.7733844 193.983884,18.8941149 C193.32463,20.0148454 192.841185,21.2124709 192.533534,22.4870271 L192.401684,22.4870271 L192.401684,14.1145528 L191.083184,14.1145528 L191.083184,48 L192.401684,48 Z M232.95668,13.1145528 L220.826481,45.2200251 L207.377783,13.1145528 L205.993358,13.1145528 L220.101307,46.670375 L217.662082,52.9332495 C217.26653,53.9441045 216.838022,54.7461839 216.376544,55.3395118 C215.915067,55.9328397 215.387672,56.3723353 214.794344,56.6580117 C214.201017,56.9436881 213.497824,57.1194863 212.684745,57.1854117 C211.871666,57.251337 210.893788,57.2842991 209.751082,57.2842991 L209.751082,58.602799 C210.761937,58.602799 211.71784,58.5698369 212.61882,58.5039115 C213.519799,58.4379862 214.343853,58.2512006 215.091007,57.9435491 C215.838161,57.6358976 216.519379,57.1634398 217.134682,56.5261617 C217.749985,55.8888836 218.27738,54.998905 218.716882,53.8561994 L234.341105,13.1145528 L232.95668,13.1145528 Z M232.95668,13.1145528"></path>
                </g>
            </g>
        </g>
    </g>
</svg>